# Blender v2.75 (sub 0) OBJ File: ''
# www.blender.org
mtllib textured-box.mtl
o Cube
v 1.000000 -1.000000 -1.000000
v 1.000000 -1.000000 1.000000
v -1.000000 -1.000000 1.000000
v -1.000000 -1.000000 -1.000000
v 1.000000 1.000000 -0.999999
v 0.999999 1.000000 1.000001
v -1.000000 1.000000 1.000000
v -1.000000 1.000000 -1.000000
vt 0.216286 0.115726
vt 0.776935 0.106610
vt 0.772059 0.935791
vt 0.199488 0.944004
vt 0.777893 0.106176
vt 0.771429 0.936537
vt 0.772899 0.936164
vt 0.772689 0.937284
vt 0.771429 0.935791
vn 0.000000 -1.000000 0.000000
vn 0.000000 1.000000 0.000000
vn 1.000000 0.000000 0.000000
vn -0.000000 -0.000000 1.000000
vn -1.000000 -0.000000 -0.000000
vn 0.000000 0.000000 -1.000000
usemtl Material.002
s off
f 1/1/1 2/2/1 3/3/1 4/4/1
f 5/1/2 8/5/2 7/6/2 6/4/2
f 1/1/3 5/2/3 6/7/3 2/4/3
f 2/1/4 6/2/4 7/6/4 3/4/4
f 3/1/5 7/2/5 8/8/5 4/4/5
f 5/1/6 1/2/6 4/9/6 8/4/6
